<svg
      width="32"
      height="32"
      viewBox="0 0 32 32"
      fill="none"
      xmlns="http://www.w3.org/2000/svg"
    >
      {/* Background */}
      <rect width="32" height="32" rx="6" fill="#1a1a1a" />

      {/* Simplified chart bars */}
      <rect x="6" y="20" width="2" height="6" rx="1" fill="#3b82f6" />
      <rect x="9" y="18" width="2" height="8" rx="1" fill="#06b6d4" />
      <rect x="12" y="15" width="2" height="11" rx="1" fill="#10b981" />
      <rect x="15" y="17" width="2" height="9" rx="1" fill="#8b5cf6" />

      {/* Connection nodes */}
      <circle cx="7" cy="10" r="1.5" fill="#3b82f6" />
      <circle cx="12" cy="8" r="1.5" fill="#06b6d4" />
      <circle cx="17" cy="9" r="1.5" fill="#10b981" />
      <circle cx="22" cy="11" r="1.5" fill="#f59e0b" />

      {/* Connection lines */}
      <line x1="8.5" y1="10" x2="10.5" y2="8" stroke="#444" strokeWidth="0.5" strokeDasharray="1,1" />
      <line x1="13.5" y1="8" x2="15.5" y2="9" stroke="#444" strokeWidth="0.5" strokeDasharray="1,1" />
      <line x1="18.5" y1="9" x2="20.5" y2="11" stroke="#444" strokeWidth="0.5" strokeDasharray="1,1" />

      {/* Performance indicator */}
      <path d="M21 18 L25 16 L21 14" stroke="#f59e0b" strokeWidth="1" fill="none" strokeLinecap="round" />

      {/* Plug symbol */}
      <rect x="24" y="22" width="4" height="3" rx="1.5" fill="#6b7280" />
      <rect x="25" y="23" width="0.8" height="1" fill="#1a1a1a" />
      <rect x="26.2" y="23" width="0.8" height="1" fill="#1a1a1a" />
    </svg>